<svg width="101" height="42" viewBox="0 0 101 42" fill="none" xmlns="http://www.w3.org/2000/svg">
<path d="M99.0189 0H70.7179C69.7848 0 69.0283 0.756465 69.0283 1.68961V18.2056C69.0283 19.1387 69.7848 19.8952 70.7179 19.8952H99.0189C99.9521 19.8952 100.709 19.1387 100.709 18.2056V1.68961C100.709 0.756465 99.9521 0 99.0189 0Z" fill="#0E4595"/>
<path d="M80.7803 14.1187L82.1895 5.84961H84.4434L83.0332 14.1187H80.7803Z" fill="white"/>
<path d="M91.1742 6.02699C90.7277 5.85946 90.028 5.67969 89.1542 5.67969C86.9271 5.67969 85.3583 6.80121 85.3449 8.40858C85.3324 9.59676 86.4649 10.2596 87.3198 10.6551C88.1971 11.0604 88.4921 11.3189 88.4879 11.6808C88.4823 12.2351 87.7873 12.4884 87.1395 12.4884C86.2373 12.4884 85.7581 12.363 85.0179 12.0543L84.7275 11.9228L84.4111 13.774C84.9376 14.0048 85.911 14.2048 86.9218 14.2151C89.291 14.2151 90.8291 13.1065 90.8466 11.39C90.8551 10.4494 90.2546 9.73349 88.9542 9.14335C88.1664 8.76082 87.684 8.50556 87.6891 8.11822C87.6891 7.77451 88.0974 7.40698 88.9798 7.40698C89.7168 7.39553 90.2507 7.55625 90.6667 7.72378L90.8687 7.8192L91.1742 6.02699Z" fill="white"/>
<path d="M96.9752 5.84961H95.2336C94.6941 5.84961 94.2904 5.99686 94.0534 6.53534L90.7061 14.1134H93.0728C93.0728 14.1134 93.4598 13.0945 93.5473 12.8707C93.806 12.8707 96.1052 12.8743 96.4339 12.8743C96.5013 13.1638 96.7081 14.1134 96.7081 14.1134H98.7995L96.9752 5.84961ZM94.212 11.1891C94.3984 10.7126 95.11 8.87756 95.11 8.87756C95.0967 8.89957 95.295 8.39881 95.4088 8.08834L95.5612 8.80128C95.5612 8.80128 95.9928 10.7751 96.0829 11.189H94.212V11.1891Z" fill="white"/>
<path d="M70.9663 5.84961L70.9375 6.02171C71.8284 6.23736 72.6241 6.54943 73.3208 6.93771L75.3207 14.1055L77.7053 14.1027L81.2537 5.84961H78.8662L76.6596 11.4885L76.4244 10.3426C76.4136 10.3076 76.4018 10.2725 76.3897 10.2374L75.6224 6.54773C75.4859 6.02412 75.0902 5.86786 74.6007 5.84961H70.9663Z" fill="white"/>
<path d="M64.7543 0H36.4533C35.5201 0 34.7637 0.756465 34.7637 1.68961V18.2056C34.7637 19.1387 35.5201 19.8952 36.4533 19.8952H64.7543C65.6874 19.8952 66.4439 19.1387 66.4439 18.2056V1.68961C66.4439 0.756465 65.6874 0 64.7543 0Z" fill="#2557D6"/>
<path d="M34.7638 9.34271H36.2855L36.6286 8.5186H37.3967L37.7389 9.34271H40.7329V8.71265L41.0002 9.34539H42.5544L42.8217 8.70325V9.34271H50.2623L50.2589 7.98993H50.4028C50.5036 7.99341 50.5331 8.00269 50.5331 8.16843V9.34271H54.3814V9.02779C54.6918 9.19342 55.1746 9.34271 55.8099 9.34271H57.4289L57.7754 8.5186H58.5435L58.8824 9.34271H62.0022V8.55989L62.4747 9.34271H64.9748V4.16797H62.5006V4.77911L62.1541 4.16797H59.6152V4.77911L59.2971 4.16797H55.8677C55.2936 4.16797 54.789 4.24776 54.3814 4.47013V4.16797H52.0149V4.47013C51.7555 4.24093 51.402 4.16797 51.009 4.16797H42.363L41.7829 5.50452L41.1872 4.16797H38.4639V4.77911L38.1647 4.16797H35.8422L34.7637 6.62832V9.34271H34.7638ZM44.3691 8.59629H43.4561L43.4527 5.69042L42.1613 8.59629H41.3793L40.0846 5.68785V8.59629H38.2732L37.931 7.76871H36.0766L35.731 8.59629H34.7637L36.3585 4.88601H37.6817L39.1964 8.39888V4.88601H40.65L41.8155 7.40299L42.8862 4.88601H44.369V8.59629H44.3691ZM37.6266 6.9987L37.017 5.51958L36.4109 6.9987H37.6266ZM48.0026 8.59629H45.0275V4.88601H48.0026V5.65864H45.9181V6.32742H47.9526V7.08796H45.9181V7.82892H48.0026V8.59629ZM52.1952 5.88526C52.1952 6.47682 51.7987 6.78245 51.5676 6.87421C51.7625 6.94807 51.929 7.07856 52.0082 7.18667C52.1339 7.37121 52.1556 7.53605 52.1556 7.86742V8.59629H51.2574L51.254 8.12839C51.254 7.90513 51.2754 7.58406 51.1134 7.40556C50.9832 7.27508 50.7849 7.24676 50.4643 7.24676H49.5082V8.59629H48.6177V4.88601H50.6661C51.1213 4.88601 51.4566 4.89799 51.7445 5.06373C52.0263 5.22947 52.1952 5.47142 52.1952 5.88526ZM51.0694 6.43621C50.947 6.51018 50.8022 6.51264 50.6288 6.51264H49.5469V5.68853H50.6436C50.7988 5.68853 50.9607 5.69547 51.0659 5.75545C51.1814 5.80951 51.2529 5.92455 51.2529 6.08346C51.2529 6.24562 51.1849 6.37611 51.0694 6.43621ZM53.6235 8.59629H52.7148V4.88601H53.6235V8.59629ZM64.1726 8.59629H62.9105L61.2224 5.81151V8.59629H59.4086L59.062 7.76871H57.212L56.8757 8.59629H55.8336C55.4007 8.59629 54.8526 8.50094 54.5422 8.18591C54.2292 7.87089 54.0664 7.44417 54.0664 6.76946C54.0664 6.2192 54.1637 5.71616 54.5465 5.31866C54.8344 5.02254 55.2853 4.88601 55.899 4.88601H56.7612V5.68102H55.9171C55.5921 5.68102 55.4086 5.72915 55.2318 5.90082C55.08 6.05704 54.9758 6.35238 54.9758 6.74126C54.9758 7.13877 55.0551 7.42537 55.2207 7.6126C55.3578 7.75942 55.6069 7.80397 55.8414 7.80397H56.2413L57.4965 4.88612H58.831L60.3388 8.39552V4.88612H61.6948L63.2603 7.47014V4.88612H64.1726V8.59629ZM58.7591 6.9987L58.1428 5.51958L57.5299 6.9987H58.7591Z" fill="white"/>
<path d="M66.4425 14.5206C66.2262 14.8356 65.8047 14.9953 65.234 14.9953H63.5141V14.1995H65.227C65.3969 14.1995 65.5158 14.1773 65.5874 14.1077C65.6495 14.0503 65.6927 13.9669 65.6927 13.8656C65.6927 13.7575 65.6495 13.6717 65.5839 13.6202C65.5193 13.5636 65.4252 13.5378 65.2702 13.5378C64.4339 13.5095 63.3907 13.5636 63.3907 12.3892C63.3907 11.8509 63.7339 11.2843 64.6685 11.2843H66.4424L66.4425 10.5459H64.7942C64.2968 10.5459 63.9355 10.6645 63.6796 10.849V10.5459H61.2417C60.8518 10.5459 60.3942 10.6421 60.1777 10.849V10.5459H55.8242V10.849C55.4777 10.6001 54.8931 10.5459 54.6233 10.5459H51.7517V10.849C51.4776 10.5846 50.868 10.5459 50.4965 10.5459H47.2826L46.5472 11.3384L45.8584 10.5459H41.0576V15.7242H45.7681L46.5259 14.9191L47.2397 15.7242L50.1432 15.7268V14.5086H50.4287C50.814 14.5146 51.2683 14.4991 51.6692 14.3266V15.7241H54.0641V14.3745H54.1796C54.3271 14.3745 54.3416 14.3805 54.3416 14.5272V15.724H61.6168C62.0787 15.724 62.5615 15.6063 62.8289 15.3926V15.724H65.1365C65.6167 15.724 66.0857 15.657 66.4425 15.4853V14.5206ZM52.0173 12.5288C52.0173 13.5597 51.2449 13.7726 50.4665 13.7726H49.3552V15.0174H47.6242L46.5275 13.7888L45.3879 15.0174H41.8601V11.3062H45.4421L46.5379 12.5226L47.6707 11.3062H50.5165C51.2232 11.3062 52.0173 11.501 52.0173 12.5288ZM44.9368 14.2367H42.7471V13.4984H44.7024V12.7412H42.7471V12.0665H44.98L45.9541 13.148L44.9368 14.2367ZM48.465 14.6617L47.0976 13.15L48.465 11.6863V14.6617ZM50.4872 13.0115H49.3362V12.0665H50.4975C50.819 12.0665 51.0422 12.1969 51.0422 12.5215C51.0422 12.8424 50.8294 13.0115 50.4872 13.0115ZM56.5167 11.3062H59.4891V12.0737H57.4036V12.7484H59.4382V13.5056H57.4036V14.2439L59.4891 14.2473V15.0174H56.5167V11.3062ZM55.3739 13.2927C55.5722 13.3656 55.7342 13.4962 55.8102 13.6043C55.936 13.7854 55.9542 13.9545 55.9578 14.2817V15.0174H55.0636V14.553C55.0636 14.3298 55.0852 13.9992 54.9197 13.8266C54.7895 13.6937 54.5912 13.6619 54.2663 13.6619H53.3145V15.0174H52.4196V11.3062H54.4758C54.9266 11.3062 55.255 11.326 55.5473 11.4813C55.8284 11.6504 56.0052 11.8821 56.0052 12.3054C56.0051 12.8978 55.6084 13.2 55.3739 13.2927ZM54.8705 12.8235C54.7514 12.8939 54.604 12.9 54.4307 12.9H53.3488V12.0665H54.4455C54.604 12.0665 54.7627 12.0698 54.8705 12.1335C54.9859 12.1936 55.0549 12.3085 55.0549 12.4673C55.0549 12.6261 54.9859 12.754 54.8705 12.8235ZM62.9104 13.0599C63.0838 13.2386 63.1767 13.4643 63.1767 13.8462C63.1767 14.6446 62.6758 15.0172 61.7777 15.0172H60.043V14.2214H61.7707C61.9396 14.2214 62.0594 14.1992 62.1345 14.1296C62.1957 14.0722 62.2397 13.9888 62.2397 13.8875C62.2397 13.7794 62.1921 13.6936 62.131 13.6421C62.0629 13.5855 61.9689 13.5597 61.8138 13.5597C60.981 13.5314 59.9379 13.5855 59.9379 12.4111C59.9379 11.8728 60.2776 11.3062 61.2112 11.3062H62.9967V12.096H61.363C61.201 12.096 61.0957 12.1021 61.0061 12.1631C60.9086 12.2232 60.8724 12.3124 60.8724 12.4301C60.8724 12.5701 60.9552 12.6653 61.0673 12.7065C61.1612 12.7391 61.2622 12.7486 61.4139 12.7486L61.8933 12.7615C62.3768 12.7732 62.7086 12.8565 62.9104 13.0599ZM66.4444 12.0665H64.8212C64.6592 12.0665 64.5515 12.0725 64.4608 12.1335C64.3669 12.1936 64.3307 12.2828 64.3307 12.4005C64.3307 12.5405 64.41 12.6357 64.5254 12.6769C64.6194 12.7095 64.7203 12.719 64.8687 12.719L65.3513 12.7319C65.8384 12.7439 66.1635 12.8272 66.3618 13.0306C66.3979 13.0589 66.4195 13.0907 66.4444 13.1224V12.0665Z" fill="white"/>
<path d="M2.73386 0.132634H29.9463C31.1076 0.132634 32.0476 1.05584 32.0476 2.1841V17.7111C32.0476 18.8393 31.1076 19.7625 29.9463 19.7625H2.73386C1.57253 19.7625 0.632634 18.8393 0.632634 17.7111V2.1841C0.632634 1.05584 1.57253 0.132634 2.73386 0.132634Z" fill="white" stroke="#003087" stroke-width="0.265269"/>
<path d="M2.82203 11.9812C2.81311 12.0341 2.82635 12.0825 2.86162 12.1265C2.89669 12.1705 2.94079 12.1925 2.99362 12.1925H3.99699C4.17298 12.1925 4.26971 12.109 4.28746 11.9417L2.82203 11.9812ZM2.82203 11.9812L3.68017 6.59451C3.69772 6.4274 3.79014 6.34375 3.9574 6.34375H6.0698C6.61544 6.34375 7.05772 6.46054 7.39666 6.69354C7.73544 6.92691 7.90501 7.30318 7.90501 7.82242C7.90501 8.57947 7.68919 9.17135 7.25804 9.59818C6.82669 10.0252 6.23259 10.2384 5.4757 10.2384C5.44927 10.2384 5.38761 10.2342 5.29088 10.2254L2.82203 11.9812ZM3.81115 6.61538L3.81134 6.61541L3.81208 6.60837C3.81865 6.54584 3.83702 6.51804 3.85163 6.50482C3.86614 6.4917 3.89525 6.47638 3.9574 6.47638H6.0698C6.59718 6.47638 7.01084 6.58926 7.32152 6.80284C7.61491 7.005 7.77237 7.33407 7.77237 7.82242C7.77237 8.55331 7.56483 9.10783 7.16473 9.50392C6.76404 9.90057 6.2068 10.1058 5.4757 10.1058C5.45648 10.1058 5.40123 10.1022 5.30289 10.0933L5.30281 10.0933C5.20333 10.0843 5.11556 10.0795 5.04 10.0795C4.96125 10.0795 4.87927 10.0869 4.79394 10.101L4.79375 10.101C4.69505 10.1174 4.60621 10.1546 4.53261 10.2159L4.53256 10.2159C4.45393 10.2815 4.40699 10.3687 4.39379 10.4704L4.15657 11.9202L4.15636 11.9202L4.15557 11.9277C4.14909 11.9887 4.13057 12.0159 4.11489 12.0294C4.09833 12.0437 4.06516 12.0598 3.99699 12.0598H2.99362C2.98384 12.0598 2.97699 12.0585 2.9654 12.0439L2.96509 12.0435C2.95203 12.0272 2.95056 12.0166 2.95282 12.0032L2.95301 12.0021L3.81115 6.61538ZM4.60542 9.05582L4.58027 9.21408L4.74044 9.20921L5.17415 9.19604C5.52554 9.19585 5.81383 9.14692 6.02585 9.0357C6.26405 8.91086 6.3914 8.65891 6.43861 8.331C6.49279 7.99576 6.45052 7.7059 6.22061 7.55884L6.22046 7.55874C6.02912 7.4367 5.74192 7.38616 5.38341 7.38616H5.13249C5.06203 7.38616 4.99008 7.40407 4.93125 7.45385C4.87267 7.50342 4.8429 7.57123 4.83039 7.64032L4.83036 7.64031L4.82991 7.64313L4.60542 9.05582Z" fill="#003087" stroke="#003087" stroke-width="0.265269"/>
<path d="M27.6689 12.0076C27.6689 12.0518 27.6866 12.0934 27.7218 12.1331C27.7569 12.1726 27.8011 12.1924 27.8538 12.1924H28.7253C28.8923 12.1924 28.9847 12.109 29.0025 11.9416L29.8607 6.54169M27.6689 12.0076L27.7875 12.0671L27.8007 12.0407L27.8076 12.027M27.6689 12.0076L27.6822 11.9812L28.5404 6.48899M27.6689 12.0076H27.7348H27.8016C27.8016 12.0111 27.802 12.0172 27.8076 12.027M27.8076 12.027C27.8105 12.032 27.8147 12.0379 27.8209 12.0449L27.8211 12.0451C27.8309 12.0562 27.8389 12.0598 27.8538 12.0598H28.7253C28.7873 12.0598 28.8164 12.0445 28.8309 12.0314C28.8455 12.0181 28.864 11.9903 28.8707 11.9276L28.8714 11.9208L28.8716 11.9208L29.728 6.53122M27.8076 12.027L27.81 12.0221L27.8132 12.0017L28.6712 6.5112M29.728 6.53122V6.54169H29.8607M29.728 6.53122L29.7285 6.52862L29.728 6.52862V6.53122ZM29.8607 6.54169L29.7783 6.5286L29.8607 6.52857M29.8607 6.54169V6.52857M29.8607 6.52857C29.8606 6.40537 29.8033 6.34375 29.6889 6.34375H28.712C28.615 6.34375 28.5578 6.39218 28.5404 6.48899M29.8607 6.52857H29.7782L29.7297 6.52087L29.7285 6.52857H29.728C29.728 6.49707 29.7226 6.48427 29.7207 6.48077M28.5404 6.48899L28.6714 6.50946L28.6712 6.5112M28.5404 6.48899L28.6709 6.51249C28.671 6.51206 28.6711 6.51162 28.6712 6.5112M28.6712 6.5112C28.6736 6.49813 28.6767 6.49028 28.6789 6.48605C28.68 6.48392 28.6809 6.4827 28.6813 6.48211L28.6821 6.4813L28.6828 6.48084C28.6833 6.48056 28.6844 6.48001 28.6865 6.47937C28.6906 6.47807 28.6986 6.47638 28.712 6.47638H29.6889C29.7084 6.47638 29.7174 6.47923 29.7207 6.48077M29.7207 6.48077C29.721 6.48089 29.7212 6.481 29.7214 6.48111M29.7207 6.48077C29.7203 6.48003 29.72 6.4797 29.72 6.47971C29.72 6.47971 29.7202 6.47991 29.7205 6.48027C29.7208 6.48062 29.7211 6.48089 29.7214 6.48111M29.7214 6.48111C29.722 6.48146 29.7223 6.4817 29.7223 6.48173L29.7214 6.48111Z" fill="#009CDE" stroke="#003087" stroke-width="0.265269"/>
<path d="M14.9342 10.5142L15.0133 10.7838L15.1712 10.5514L16.5701 8.49254C16.6098 8.43612 16.6504 8.41779 16.6986 8.41779H17.7152C17.7163 8.41779 17.7168 8.41784 17.7185 8.41865C17.7206 8.41973 17.7264 8.42318 17.7349 8.43273C17.753 8.4533 17.7541 8.46502 17.7541 8.46998C17.7541 8.47589 17.7539 8.48045 17.7535 8.48382L17.7514 8.48685L14.3852 13.345C14.3851 13.345 14.385 13.3451 14.385 13.3452C14.345 13.4021 14.3044 13.4204 14.2561 13.4204H13.2395C13.2191 13.4204 13.209 13.4176 13.205 13.4159C13.2039 13.4131 13.2022 13.4075 13.2012 13.3975C13.202 13.3958 13.2029 13.3939 13.204 13.3917C13.2128 13.3737 13.2274 13.3473 13.2491 13.3113C13.2923 13.2397 13.3583 13.1387 13.448 13.0074C13.6272 12.7451 13.8969 12.368 14.2575 11.8754L14.2944 11.825L14.2791 11.7644C14.2685 11.7226 14.1621 11.4059 13.9658 10.8302C13.7677 10.2492 13.5828 9.70783 13.4112 9.20603L13.4112 9.20602C13.3255 8.95528 13.2613 8.7655 13.2186 8.63636C13.1972 8.57169 13.1815 8.52286 13.1711 8.48942C13.1674 8.47744 13.1646 8.46793 13.1625 8.46066C13.1645 8.45425 13.1692 8.44518 13.1801 8.43298L13.1801 8.43298L13.1806 8.43242C13.1889 8.42293 13.1945 8.41961 13.1965 8.41862C13.1979 8.4179 13.1985 8.41779 13.1999 8.41779H14.1902C14.2439 8.41779 14.2762 8.43024 14.2969 8.44526C14.3172 8.46008 14.3382 8.48609 14.3538 8.53509L14.9342 10.5142ZM13.2027 13.4148C13.2027 13.4148 13.2029 13.4149 13.2033 13.4152L13.2027 13.4148ZM13.2058 13.4176C13.206 13.418 13.2061 13.4182 13.2061 13.4182L13.2058 13.4176Z" fill="#003087" stroke="#003087" stroke-width="0.265269"/>
<path d="M24.1085 11.1027C24.2961 11.2695 24.5363 11.3474 24.8172 11.3474C25.1684 11.3474 25.4725 11.2241 25.722 10.9795C25.9721 10.7344 26.0984 10.4316 26.0985 10.0795V10.0795C26.0985 9.79346 26.0056 9.55447 25.8098 9.37977L25.8098 9.37968L24.2891 9.59756L24.1944 9.5047C24.1943 9.50472 24.1943 9.50474 24.1943 9.50476C23.949 9.75498 23.8263 10.0639 23.8263 10.4227C23.8263 10.7003 23.917 10.9327 24.1085 11.1027ZM24.1085 11.1027L24.1966 11.0036L24.1086 11.1028C24.1086 11.1028 24.1086 11.1028 24.1085 11.1027ZM26.0131 8.79193L26.2218 9.11241L26.2564 8.73157C26.269 8.59207 26.2923 8.50336 26.318 8.45347C26.3303 8.42964 26.34 8.42069 26.3437 8.41803C26.3456 8.41664 26.3458 8.41649 26.3486 8.41649H27.352C27.3613 8.41649 27.3683 8.41765 27.3805 8.43274C27.3935 8.44912 27.395 8.46 27.3928 8.47362L27.3927 8.47453L26.8513 11.9203C26.8513 11.9203 26.8513 11.9203 26.8513 11.9204C26.8414 11.9831 26.8212 12.0132 26.8032 12.0287C26.7855 12.044 26.7537 12.0591 26.692 12.0591H25.781C25.7656 12.0591 25.7583 12.0567 25.756 12.0558C25.755 12.0554 25.7548 12.0552 25.755 12.0554C25.7552 12.0555 25.7552 12.0555 25.7552 12.0555C25.7552 12.0555 25.7552 12.0555 25.7551 12.0554C25.7538 12.0538 25.7419 12.0366 25.7419 11.9805C25.7419 11.9626 25.7472 11.9228 25.7644 11.8545L25.7645 11.8541C25.7733 11.8186 25.7802 11.7899 25.7849 11.7686C25.7873 11.758 25.7894 11.7482 25.7909 11.7397L25.791 11.7391C25.792 11.7339 25.7948 11.7189 25.7948 11.7033V11.3428L25.5612 11.6174C25.4281 11.7737 25.2409 11.9033 24.9923 12.0027C24.7421 12.1027 24.4991 12.1516 24.2627 12.1516C23.7806 12.1516 23.4101 12.0075 23.1358 11.7291L23.1358 11.729C22.8614 11.4508 22.7186 11.0732 22.7186 10.5812C22.7186 9.97282 22.9276 9.44609 23.3495 8.99499L23.3495 8.99497C23.7695 8.5457 24.274 8.32404 24.8699 8.32404C25.454 8.32404 25.8183 8.49266 26.0131 8.79193Z" fill="#009CDE" stroke="#003087" stroke-width="0.265269"/>
<path d="M12.486 8.34988L12.3822 8.43247C12.3954 8.44899 12.397 8.45993 12.3947 8.47362L12.3946 8.47453L11.8533 11.9203C11.8434 11.9831 11.8231 12.0132 11.8052 12.0287C11.7875 12.044 11.7556 12.0591 11.6938 12.0591H10.7829C10.7676 12.0591 10.7603 12.0568 10.758 12.0558C10.7575 12.0556 10.7572 12.0555 10.7571 12.0554C10.7569 12.0553 10.7569 12.0553 10.757 12.0554C10.7571 12.0555 10.7572 12.0555 10.7572 12.0555C10.7572 12.0555 10.7572 12.0555 10.7571 12.0553C10.7558 12.0538 10.7439 12.0366 10.7439 11.9805C10.7439 11.9201 10.7574 11.8424 10.7899 11.7454L10.5655 11.6146C10.4231 11.7729 10.2301 11.9031 9.98112 12.0027C9.73036 12.1029 9.49166 12.1516 9.26462 12.1516C8.78263 12.1516 8.41215 12.0075 8.1379 11.7291L8.13785 11.729C7.86345 11.4507 7.72053 11.0732 7.72053 10.5812C7.72053 9.97282 7.92958 9.44609 8.35146 8.99499L8.35147 8.99498C8.77157 8.54569 9.27601 8.32404 9.87192 8.32404C10.4458 8.32404 10.8125 8.49204 11.0163 8.7938L11.2245 9.1022L11.2583 8.73159C11.271 8.59208 11.2943 8.50339 11.32 8.45351C11.3322 8.42969 11.342 8.42074 11.3457 8.41806C11.3476 8.41666 11.3479 8.41649 11.3507 8.41649H12.354C12.3634 8.41649 12.3704 8.41768 12.3825 8.43284L12.486 8.34988ZM12.486 8.34988C12.4508 8.30593 12.4068 8.28386 12.354 8.28386H11.3507C11.2567 8.28386 11.191 8.36808 11.1533 8.53654M12.486 8.34988C12.5211 8.39395 12.5343 8.44229 12.5256 8.49511L11.9843 11.9409C11.9579 12.1083 11.861 12.1918 11.6938 12.1918H10.7829C10.6684 12.1918 10.6113 12.1215 10.6113 11.9805C10.6113 11.9664 10.6118 11.9519 10.6129 11.9369L11.1533 8.53654M11.1533 8.53654C11.1827 8.57086 11.2103 8.60711 11.2361 8.64534L11.1262 8.71957L10.9941 8.70755C10.9983 8.6618 11.0037 8.61805 11.0105 8.57665L11.1533 8.53654ZM10.8118 9.37968L10.8119 9.37977C11.0076 9.55449 11.1004 9.7935 11.1004 10.0795C11.1004 10.4393 10.9748 10.7452 10.723 10.9869C10.4725 11.2278 10.1639 11.3474 9.80598 11.3474C9.52532 11.3474 9.28614 11.2695 9.10255 11.1015M10.8118 9.37968L9.19202 11.0036M10.8118 9.37968C10.6214 9.21005 10.384 9.12825 10.1096 9.12825C9.74968 9.12825 9.44221 9.25377 9.19636 9.50469M10.8118 9.37968L9.29105 9.59756M9.10255 11.1015C9.10252 11.1015 9.10249 11.1014 9.10246 11.1014L9.19202 11.0036M9.10255 11.1015C9.10258 11.1015 9.1026 11.1016 9.10263 11.1016L9.19202 11.0036M9.10255 11.1015C8.91587 10.9311 8.82832 10.6991 8.82832 10.4227C8.82832 10.0639 8.95093 9.75494 9.19636 9.50469M9.19202 11.0036C9.03791 10.863 8.96095 10.6693 8.96095 10.4227C8.96095 10.0972 9.07092 9.82201 9.29105 9.59756M9.19636 9.50469C9.19634 9.50471 9.19633 9.50472 9.19631 9.50474L9.29105 9.59756M9.19636 9.50469L9.29105 9.59756" fill="#003087" stroke="#003087" stroke-width="0.265269"/>
<path d="M21.1162 8.97498L21.1162 8.97502C20.8907 9.12868 20.5694 9.1958 20.1722 9.19604L19.7518 9.20921L19.5915 9.21423L19.6166 9.05582L19.8411 7.64313L19.8415 7.64042L19.8416 7.64042C19.854 7.5713 19.8838 7.50345 19.9424 7.45385C20.0012 7.40405 20.0732 7.38616 20.1437 7.38616H20.3813C20.5778 7.38616 20.7394 7.39502 20.8636 7.41404L20.8639 7.41408C21.0076 7.43642 21.1402 7.50476 21.2608 7.61033L21.1162 8.97498ZM21.1162 8.97498C21.3632 8.80644 21.4646 8.50032 21.4646 8.11289C21.4646 7.90916 21.4024 7.73417 21.2608 7.61034L21.1162 8.97498ZM18.8092 6.61538L18.8094 6.61541L18.8101 6.60831C18.8165 6.5475 18.835 6.52039 18.8506 6.50686C18.8672 6.49253 18.9005 6.47638 18.9687 6.47638H21.0679C21.5953 6.47638 22.0089 6.58926 22.3196 6.80284C22.613 7.00499 22.7704 7.33406 22.7703 7.82237V7.82238C22.7703 8.5533 22.5629 9.1078 22.1628 9.50387L22.1627 9.50388C21.762 9.90053 21.2049 10.1058 20.4737 10.1058C20.4547 10.1058 20.3993 10.1022 20.3009 10.0932L20.3008 10.0932C20.2014 10.0843 20.1136 10.0795 20.0381 10.0795C19.9593 10.0795 19.8773 10.0868 19.792 10.1009L19.7919 10.101C19.693 10.1174 19.6043 10.1545 19.5307 10.2158L19.5306 10.2159C19.4517 10.2817 19.4049 10.3691 19.3918 10.4709L19.156 11.9901C19.1443 12.0242 19.1312 12.0396 19.1226 12.0466C19.1148 12.0529 19.1018 12.0598 19.0742 12.0598H17.9917C17.9818 12.0598 17.9749 12.0583 17.9636 12.044L17.9631 12.0434C17.9501 12.0272 17.9486 12.0166 17.9509 12.0032L17.9511 12.002L18.8092 6.61538ZM17.8597 12.1264L17.8597 12.1264L17.8597 12.1264Z" fill="#009CDE" stroke="#003087" stroke-width="0.265269"/>
<path d="M71.2794 22C70.0461 22 69.0459 22.9781 69.0459 24.1843V39.7109C69.0459 40.9173 70.0458 41.8952 71.2794 41.8952H98.4926C99.7259 41.8952 100.726 40.9171 100.726 39.7109V32.6646V24.1843C100.726 22.9778 99.7262 22 98.4926 22H71.2794Z" fill="#4D4D4D"/>
<path d="M82.3326 28.4287C82.6915 28.4287 82.9926 28.5019 83.3589 28.6784V29.6114C83.0119 29.2889 82.7109 29.154 82.3128 29.154C81.5304 29.154 80.9151 29.7697 80.9151 30.5503C80.9151 31.3734 81.5114 31.9525 82.3516 31.9525C82.7298 31.9525 83.0253 31.8245 83.3589 31.5073V32.4407C82.9795 32.6105 82.672 32.6775 82.3128 32.6775C81.0424 32.6775 80.0553 31.751 80.0553 30.556C80.0553 29.374 81.0687 28.4287 82.3326 28.4287ZM78.3883 28.4544C78.8573 28.4544 79.2864 28.607 79.6451 28.9052L79.2086 29.4485C78.9912 29.217 78.7857 29.1193 78.5358 29.1193C78.1762 29.1193 77.9143 29.3139 77.9143 29.5699C77.9143 29.7895 78.0614 29.9057 78.562 30.0818C79.5109 30.4116 79.7922 30.704 79.7922 31.3499C79.7922 32.1369 79.1839 32.6847 78.317 32.6847C77.6822 32.6847 77.2207 32.4471 76.8363 31.9109L77.3752 31.4176C77.5673 31.7706 77.8878 31.9598 78.2858 31.9598C78.6579 31.9598 78.9335 31.7157 78.9335 31.3863C78.9335 31.2156 78.85 31.0692 78.6833 30.9657C78.5994 30.9167 78.4332 30.8436 78.1066 30.7342C77.3231 30.4661 77.0543 30.1795 77.0543 29.6194C77.0543 28.9541 77.6316 28.4544 78.3883 28.4544ZM87.9217 28.5253H88.8331L89.9737 31.2559L91.129 28.5253H92.0334L90.1857 32.695H89.7367L87.9217 28.5253ZM71.7832 28.5315H73.0078C74.3608 28.5315 75.3039 29.3673 75.3039 30.5671C75.3039 31.1653 75.0154 31.7438 74.5275 32.1276C74.1169 32.4516 73.6491 32.5969 73.0014 32.5969H71.7832V28.5315ZM75.6878 28.5315H76.5221V32.5969H75.6878V28.5315ZM92.4106 28.5315H94.7766V29.2204H93.2443V30.1228H94.7201V30.8113H93.2443V31.9087H94.7766V32.5969H92.4106V28.5315ZM95.3292 28.5315H96.5661C97.5283 28.5315 98.0797 28.9707 98.0797 29.7318C98.0797 30.3543 97.7339 30.7628 97.1055 30.8843L98.4518 32.5969H97.4259L96.2712 30.9638H96.1624V32.5969H95.3292V28.5315ZM96.1624 29.1719V30.4031H96.4062C96.9389 30.4031 97.2213 30.1832 97.2213 29.7745C97.2213 29.3789 96.9389 29.1719 96.4194 29.1719H96.1624ZM72.6169 29.2204V31.9087H72.8407C73.3798 31.9087 73.7203 31.8105 73.9824 31.5856C74.2709 31.3414 74.4445 30.9514 74.4445 30.5612C74.4445 30.1717 74.2709 29.7934 73.9824 29.5492C73.7068 29.3122 73.3798 29.2204 72.8407 29.2204H72.6169Z" fill="white"/>
<path d="M85.9058 28.4014C87.1624 28.4014 88.1811 29.3377 88.1811 30.4945V30.4958C88.1811 31.6525 87.1624 32.5902 85.9058 32.5902C84.6491 32.5902 83.6304 31.6525 83.6304 30.4958V30.4945C83.6304 29.3377 84.6491 28.4014 85.9058 28.4014ZM100.724 33.4505C99.6664 34.1785 91.7452 39.3809 78.0303 41.894H98.4909C99.7242 41.894 100.724 40.9159 100.724 39.7097V33.4505Z" fill="#F47216"/>
<path d="M64.7562 22.1045H36.4552C35.5221 22.1045 34.7656 22.861 34.7656 23.7941V40.3101C34.7656 41.2432 35.5221 41.9997 36.4552 41.9997H64.7562C65.6894 41.9997 66.4458 41.2432 66.4458 40.3101V23.7941C66.4458 22.861 65.6894 22.1045 64.7562 22.1045Z" fill="black"/>
<path d="M44.1057 39.9146V38.865C44.1057 38.4624 43.8607 38.2001 43.4586 38.2001C43.2474 38.2001 43.0214 38.2702 42.8638 38.4958C42.7413 38.3032 42.5682 38.2001 42.3042 38.2001C42.1048 38.1915 41.9144 38.2835 41.7973 38.4451V38.2339H41.4648V39.9134H41.7973V38.9524C41.7973 38.6567 41.9721 38.5152 42.2171 38.5152C42.4621 38.5152 42.602 38.6728 42.602 38.9524V39.9146H42.9344V38.9524C42.9344 38.6567 43.1093 38.5152 43.3543 38.5152C43.5992 38.5152 43.7391 38.6728 43.7391 38.9524V39.9146H44.1057ZM49.564 38.2525H48.9515V37.7456H48.6199V38.2525H48.2702V38.5482H48.6199V39.3372C48.6199 39.722 48.7597 39.9497 49.1796 39.9497C49.3387 39.9464 49.4945 39.9043 49.6337 39.8272L49.5285 39.5315C49.4341 39.5905 49.3247 39.6209 49.2134 39.619C49.0385 39.619 48.9511 39.5138 48.9511 39.3389V38.5347H49.5636V38.2546L49.564 38.2525ZM52.6779 38.2001C52.4938 38.196 52.321 38.2891 52.223 38.4451V38.2339H51.8906V39.9134H52.223V38.9702C52.223 38.6901 52.3628 38.5152 52.5905 38.5152C52.6673 38.5183 52.7436 38.5301 52.8178 38.5503L52.9229 38.2352C52.8427 38.215 52.7606 38.2032 52.6779 38.2001ZM47.972 38.375C47.7971 38.2525 47.5521 38.2001 47.2898 38.2001C46.8699 38.2001 46.6076 38.3927 46.6076 38.7252C46.6076 39.0052 46.8002 39.1623 47.1673 39.2151L47.3422 39.2325C47.5348 39.2675 47.6573 39.3376 47.6573 39.4251C47.6573 39.5476 47.5175 39.6363 47.2547 39.6363C47.0541 39.6404 46.8576 39.579 46.695 39.4614L46.5202 39.7237C46.7652 39.8986 47.0625 39.9349 47.2382 39.9349C47.7282 39.9349 47.9905 39.7077 47.9905 39.3926C47.9905 39.0969 47.7793 38.9554 47.4131 38.9026L47.2382 38.8853C47.0807 38.8679 46.9426 38.8151 46.9426 38.7104C46.9426 38.5879 47.0824 38.4992 47.275 38.4992C47.4862 38.4992 47.6949 38.5866 47.8 38.639L47.972 38.375ZM53.0454 39.0749C53.0454 39.5818 53.3779 39.9497 53.9202 39.9497C54.1652 39.9497 54.3401 39.8973 54.515 39.7571L54.3401 39.4948C54.2163 39.5951 54.0622 39.6506 53.9029 39.6523C53.6072 39.6523 53.3779 39.4251 53.3779 39.0927C53.3779 38.7602 53.6043 38.5347 53.9029 38.5347C54.0622 38.5364 54.2163 38.5919 54.3401 38.6922L54.515 38.4299C54.3401 38.2901 54.1652 38.2373 53.9202 38.2373C53.3952 38.2022 53.0454 38.5697 53.0454 39.077V39.0749ZM50.7011 38.2001C50.2111 38.2001 49.8787 38.5499 49.8787 39.0749C49.8787 39.6 50.2284 39.9497 50.7357 39.9497C50.9825 39.9549 51.2236 39.8746 51.4179 39.7225L51.243 39.4775C51.1025 39.5864 50.9308 39.6476 50.7531 39.6523C50.5258 39.6523 50.2808 39.5125 50.2462 39.2151H51.4885V39.0753C51.4885 38.5503 51.1733 38.2005 50.7011 38.2005V38.2001ZM50.6838 38.5152C50.9288 38.5152 51.1037 38.6728 51.121 38.9351H50.2115C50.2639 38.6901 50.4227 38.5152 50.6838 38.5152ZM46.1527 39.0749V38.2352H45.8202V38.4464C45.6977 38.2888 45.5246 38.2014 45.2779 38.2014C44.8056 38.2014 44.4555 38.5689 44.4555 39.0762C44.4555 39.5835 44.8052 39.951 45.2779 39.951C45.5229 39.951 45.6977 39.8635 45.8202 39.706V39.9172H46.1527V39.0749ZM44.8056 39.0749C44.8056 38.7598 44.9982 38.5152 45.3307 38.5152C45.6458 38.5152 45.8376 38.7602 45.8376 39.0749C45.8376 39.4073 45.6264 39.6346 45.3307 39.6346C44.9982 39.6519 44.8056 39.3896 44.8056 39.0749ZM57.7345 38.2001C57.5503 38.196 57.3776 38.2891 57.2796 38.4451V38.2339H56.9472V39.9134H57.2792V38.9702C57.2792 38.6901 57.419 38.5152 57.6467 38.5152C57.7235 38.5183 57.7997 38.5301 57.8739 38.5503L57.9791 38.2352C57.8989 38.215 57.8168 38.2032 57.7341 38.2001H57.7345ZM56.4399 39.0749V38.2352H56.1074V38.4464C55.9849 38.2888 55.8118 38.2014 55.5651 38.2014C55.0928 38.2014 54.7427 38.5689 54.7427 39.0762C54.7427 39.5835 55.0924 39.951 55.5651 39.951C55.8101 39.951 55.9849 39.8635 56.1074 39.706V39.9172H56.4399V39.0749ZM55.0928 39.0749C55.0928 38.7598 55.2854 38.5152 55.6179 38.5152C55.933 38.5152 56.1248 38.7602 56.1248 39.0749C56.1248 39.4073 55.9136 39.6346 55.6179 39.6346C55.2854 39.6519 55.0928 39.3896 55.0928 39.0749ZM59.8166 39.0749V37.5703H59.4841V38.4451C59.3616 38.2876 59.1884 38.2001 58.9418 38.2001C58.4695 38.2001 58.1193 38.5676 58.1193 39.0749C58.1193 39.5822 58.4691 39.9497 58.9418 39.9497C59.1868 39.9497 59.3616 39.8623 59.4841 39.7047V39.9159H59.8166V39.0749ZM58.4695 39.0749C58.4695 38.7598 58.6621 38.5152 58.9946 38.5152C59.3097 38.5152 59.5014 38.7602 59.5014 39.0749C59.5014 39.4073 59.2902 39.6346 58.9946 39.6346C58.6617 39.6523 58.4691 39.39 58.4691 39.0749H58.4695Z" fill="white"/>
<path d="M53.6587 25.499H47.5879V35.401H53.6587V25.499Z" fill="#FF5F00"/>
<path d="M48.2002 30.4495C48.2007 28.5196 49.0835 26.6959 50.5969 25.4985C48.0149 23.4684 44.3062 23.7635 42.0777 26.1764C39.8491 28.5893 39.8491 32.3097 42.0777 34.7226C44.3062 37.1355 48.0149 37.4306 50.5969 35.4005C49.0835 34.2031 48.2007 32.3793 48.2002 30.4495Z" fill="#EB001B"/>
<path d="M60.7971 30.4496C60.7988 32.8593 59.4242 35.0583 57.2572 36.1122C55.0902 37.1661 52.5116 36.8898 50.6172 35.4006C52.131 34.2035 53.014 32.3796 53.014 30.4496C53.014 28.5197 52.131 26.6958 50.6172 25.4986C52.5116 24.0095 55.0902 23.7331 57.2572 24.787C59.4242 25.841 60.7988 28.04 60.7971 30.4496Z" fill="#F79E1B"/>
</svg>
