<svg width="101" height="42" viewBox="0 0 101 42" fill="none" xmlns="http://www.w3.org/2000/svg">
<path d="M98.5189 0H70.2179C69.2848 0 68.5283 0.756465 68.5283 1.68961V18.2056C68.5283 19.1387 69.2848 19.8952 70.2179 19.8952H98.5189C99.4521 19.8952 100.209 19.1387 100.209 18.2056V1.68961C100.209 0.756465 99.4521 0 98.5189 0Z" fill="#0E4595"/>
<path d="M80.2803 14.1187L81.6895 5.84961H83.9434L82.5332 14.1187H80.2803Z" fill="white"/>
<path d="M90.6742 6.02699C90.2277 5.85946 89.528 5.67969 88.6542 5.67969C86.4271 5.67969 84.8583 6.80121 84.8449 8.40858C84.8324 9.59676 85.9649 10.2596 86.8198 10.6551C87.6971 11.0604 87.9921 11.3189 87.9879 11.6808C87.9823 12.2351 87.2873 12.4884 86.6395 12.4884C85.7373 12.4884 85.2581 12.363 84.5179 12.0543L84.2275 11.9228L83.9111 13.774C84.4376 14.0048 85.411 14.2048 86.4218 14.2151C88.791 14.2151 90.3291 13.1065 90.3466 11.39C90.3551 10.4494 89.7546 9.73349 88.4542 9.14335C87.6664 8.76082 87.184 8.50556 87.1891 8.11822C87.1891 7.77451 87.5974 7.40698 88.4798 7.40698C89.2168 7.39553 89.7507 7.55625 90.1667 7.72378L90.3687 7.8192L90.6742 6.02699Z" fill="white"/>
<path d="M96.4752 5.84961H94.7336C94.1941 5.84961 93.7904 5.99686 93.5534 6.53534L90.2061 14.1134H92.5728C92.5728 14.1134 92.9598 13.0945 93.0473 12.8707C93.306 12.8707 95.6052 12.8743 95.9339 12.8743C96.0013 13.1638 96.2081 14.1134 96.2081 14.1134H98.2995L96.4752 5.84961ZM93.712 11.1891C93.8984 10.7126 94.61 8.87756 94.61 8.87756C94.5967 8.89957 94.795 8.39881 94.9088 8.08834L95.0612 8.80128C95.0612 8.80128 95.4928 10.7751 95.5829 11.189H93.712V11.1891Z" fill="white"/>
<path d="M70.4663 5.84961L70.4375 6.02171C71.3284 6.23736 72.1241 6.54943 72.8208 6.93771L74.8207 14.1055L77.2053 14.1027L80.7537 5.84961H78.3662L76.1596 11.4885L75.9244 10.3426C75.9136 10.3076 75.9018 10.2725 75.8897 10.2374L75.1224 6.54773C74.9859 6.02412 74.5902 5.86786 74.1007 5.84961H70.4663Z" fill="white"/>
<path d="M64.2543 0H35.9533C35.0201 0 34.2637 0.756465 34.2637 1.68961V18.2056C34.2637 19.1387 35.0201 19.8952 35.9533 19.8952H64.2543C65.1874 19.8952 65.9439 19.1387 65.9439 18.2056V1.68961C65.9439 0.756465 65.1874 0 64.2543 0Z" fill="#2557D6"/>
<path d="M34.2638 9.34271H35.7855L36.1286 8.5186H36.8967L37.2389 9.34271H40.2329V8.71265L40.5002 9.34539H42.0544L42.3217 8.70325V9.34271H49.7623L49.7589 7.98993H49.9028C50.0036 7.99341 50.0331 8.00269 50.0331 8.16843V9.34271H53.8814V9.02779C54.1918 9.19342 54.6746 9.34271 55.3099 9.34271H56.9289L57.2754 8.5186H58.0435L58.3824 9.34271H61.5022V8.55989L61.9747 9.34271H64.4748V4.16797H62.0006V4.77911L61.6541 4.16797H59.1152V4.77911L58.7971 4.16797H55.3677C54.7936 4.16797 54.289 4.24776 53.8814 4.47013V4.16797H51.5149V4.47013C51.2555 4.24093 50.902 4.16797 50.509 4.16797H41.863L41.2829 5.50452L40.6872 4.16797H37.9639V4.77911L37.6647 4.16797H35.3422L34.2637 6.62832V9.34271H34.2638ZM43.8691 8.59629H42.9561L42.9527 5.69042L41.6613 8.59629H40.8793L39.5846 5.68785V8.59629H37.7732L37.431 7.76871H35.5766L35.231 8.59629H34.2637L35.8585 4.88601H37.1817L38.6964 8.39888V4.88601H40.15L41.3155 7.40299L42.3862 4.88601H43.869V8.59629H43.8691ZM37.1266 6.9987L36.517 5.51958L35.9109 6.9987H37.1266ZM47.5026 8.59629H44.5275V4.88601H47.5026V5.65864H45.4181V6.32742H47.4526V7.08796H45.4181V7.82892H47.5026V8.59629ZM51.6952 5.88526C51.6952 6.47682 51.2987 6.78245 51.0676 6.87421C51.2625 6.94807 51.429 7.07856 51.5082 7.18667C51.6339 7.37121 51.6556 7.53605 51.6556 7.86742V8.59629H50.7574L50.754 8.12839C50.754 7.90513 50.7754 7.58406 50.6134 7.40556C50.4832 7.27508 50.2849 7.24676 49.9643 7.24676H49.0082V8.59629H48.1177V4.88601H50.1661C50.6213 4.88601 50.9566 4.89799 51.2445 5.06373C51.5263 5.22947 51.6952 5.47142 51.6952 5.88526ZM50.5694 6.43621C50.447 6.51018 50.3022 6.51264 50.1288 6.51264H49.0469V5.68853H50.1436C50.2988 5.68853 50.4607 5.69547 50.5659 5.75545C50.6814 5.80951 50.7529 5.92455 50.7529 6.08346C50.7529 6.24562 50.6849 6.37611 50.5694 6.43621ZM53.1235 8.59629H52.2148V4.88601H53.1235V8.59629ZM63.6726 8.59629H62.4105L60.7224 5.81151V8.59629H58.9086L58.562 7.76871H56.712L56.3757 8.59629H55.3336C54.9007 8.59629 54.3526 8.50094 54.0422 8.18591C53.7292 7.87089 53.5664 7.44417 53.5664 6.76946C53.5664 6.2192 53.6637 5.71616 54.0465 5.31866C54.3344 5.02254 54.7853 4.88601 55.399 4.88601H56.2612V5.68102H55.4171C55.0921 5.68102 54.9086 5.72915 54.7318 5.90082C54.58 6.05704 54.4758 6.35238 54.4758 6.74126C54.4758 7.13877 54.5551 7.42537 54.7207 7.6126C54.8578 7.75942 55.1069 7.80397 55.3414 7.80397H55.7413L56.9965 4.88612H58.331L59.8388 8.39552V4.88612H61.1948L62.7603 7.47014V4.88612H63.6726V8.59629ZM58.2591 6.9987L57.6428 5.51958L57.0299 6.9987H58.2591Z" fill="white"/>
<path d="M65.9425 14.5206C65.7262 14.8356 65.3047 14.9953 64.734 14.9953H63.0141V14.1995H64.727C64.8969 14.1995 65.0158 14.1773 65.0874 14.1077C65.1495 14.0503 65.1927 13.9669 65.1927 13.8656C65.1927 13.7575 65.1495 13.6717 65.0839 13.6202C65.0193 13.5636 64.9252 13.5378 64.7702 13.5378C63.9339 13.5095 62.8907 13.5636 62.8907 12.3892C62.8907 11.8509 63.2339 11.2843 64.1685 11.2843H65.9424L65.9425 10.5459H64.2942C63.7968 10.5459 63.4355 10.6645 63.1796 10.849V10.5459H60.7417C60.3518 10.5459 59.8942 10.6421 59.6777 10.849V10.5459H55.3242V10.849C54.9777 10.6001 54.3931 10.5459 54.1233 10.5459H51.2517V10.849C50.9776 10.5846 50.368 10.5459 49.9965 10.5459H46.7826L46.0472 11.3384L45.3584 10.5459H40.5576V15.7242H45.2681L46.0259 14.9191L46.7397 15.7242L49.6432 15.7268V14.5086H49.9287C50.314 14.5146 50.7683 14.4991 51.1692 14.3266V15.7241H53.5641V14.3745H53.6796C53.8271 14.3745 53.8416 14.3805 53.8416 14.5272V15.724H61.1168C61.5787 15.724 62.0615 15.6063 62.3289 15.3926V15.724H64.6365C65.1167 15.724 65.5857 15.657 65.9425 15.4853V14.5206ZM51.5173 12.5288C51.5173 13.5597 50.7449 13.7726 49.9665 13.7726H48.8552V15.0174H47.1242L46.0275 13.7888L44.8879 15.0174H41.3601V11.3062H44.9421L46.0379 12.5226L47.1707 11.3062H50.0165C50.7232 11.3062 51.5173 11.501 51.5173 12.5288ZM44.4368 14.2367H42.2471V13.4984H44.2024V12.7412H42.2471V12.0665H44.48L45.4541 13.148L44.4368 14.2367ZM47.965 14.6617L46.5976 13.15L47.965 11.6863V14.6617ZM49.9872 13.0115H48.8362V12.0665H49.9975C50.319 12.0665 50.5422 12.1969 50.5422 12.5215C50.5422 12.8424 50.3294 13.0115 49.9872 13.0115ZM56.0167 11.3062H58.9891V12.0737H56.9036V12.7484H58.9382V13.5056H56.9036V14.2439L58.9891 14.2473V15.0174H56.0167V11.3062ZM54.8739 13.2927C55.0722 13.3656 55.2342 13.4962 55.3102 13.6043C55.436 13.7854 55.4542 13.9545 55.4578 14.2817V15.0174H54.5636V14.553C54.5636 14.3298 54.5852 13.9992 54.4197 13.8266C54.2895 13.6937 54.0912 13.6619 53.7663 13.6619H52.8145V15.0174H51.9196V11.3062H53.9758C54.4266 11.3062 54.755 11.326 55.0473 11.4813C55.3284 11.6504 55.5052 11.8821 55.5052 12.3054C55.5051 12.8978 55.1084 13.2 54.8739 13.2927ZM54.3705 12.8235C54.2514 12.8939 54.104 12.9 53.9307 12.9H52.8488V12.0665H53.9455C54.104 12.0665 54.2627 12.0698 54.3705 12.1335C54.4859 12.1936 54.5549 12.3085 54.5549 12.4673C54.5549 12.6261 54.4859 12.754 54.3705 12.8235ZM62.4104 13.0599C62.5838 13.2386 62.6767 13.4643 62.6767 13.8462C62.6767 14.6446 62.1758 15.0172 61.2777 15.0172H59.543V14.2214H61.2707C61.4396 14.2214 61.5594 14.1992 61.6345 14.1296C61.6957 14.0722 61.7397 13.9888 61.7397 13.8875C61.7397 13.7794 61.6921 13.6936 61.631 13.6421C61.5629 13.5855 61.4689 13.5597 61.3138 13.5597C60.481 13.5314 59.4379 13.5855 59.4379 12.4111C59.4379 11.8728 59.7776 11.3062 60.7112 11.3062H62.4967V12.096H60.863C60.701 12.096 60.5957 12.1021 60.5061 12.1631C60.4086 12.2232 60.3724 12.3124 60.3724 12.4301C60.3724 12.5701 60.4552 12.6653 60.5673 12.7065C60.6612 12.7391 60.7622 12.7486 60.9139 12.7486L61.3933 12.7615C61.8768 12.7732 62.2086 12.8565 62.4104 13.0599ZM65.9444 12.0665H64.3212C64.1592 12.0665 64.0515 12.0725 63.9608 12.1335C63.8669 12.1936 63.8307 12.2828 63.8307 12.4005C63.8307 12.5405 63.91 12.6357 64.0254 12.6769C64.1194 12.7095 64.2203 12.719 64.3687 12.719L64.8513 12.7319C65.3384 12.7439 65.6635 12.8272 65.8618 13.0306C65.8979 13.0589 65.9195 13.0907 65.9444 13.1224V12.0665Z" fill="white"/>
<path d="M2.23386 0.132634H29.4463C30.6076 0.132634 31.5476 1.05584 31.5476 2.1841V17.7111C31.5476 18.8393 30.6076 19.7625 29.4463 19.7625H2.23386C1.07253 19.7625 0.132634 18.8393 0.132634 17.7111V2.1841C0.132634 1.05584 1.07253 0.132634 2.23386 0.132634Z" fill="white" stroke="#003087" stroke-width="0.265269"/>
<path d="M2.32203 11.9812C2.31311 12.0341 2.32635 12.0825 2.36162 12.1265C2.39669 12.1705 2.44079 12.1925 2.49362 12.1925H3.49699C3.67298 12.1925 3.76971 12.109 3.78746 11.9417L2.32203 11.9812ZM2.32203 11.9812L3.18017 6.59451C3.19772 6.4274 3.29014 6.34375 3.4574 6.34375H5.5698C6.11544 6.34375 6.55772 6.46054 6.89666 6.69354C7.23544 6.92691 7.40501 7.30318 7.40501 7.82242C7.40501 8.57947 7.18919 9.17135 6.75804 9.59818C6.32669 10.0252 5.73259 10.2384 4.9757 10.2384C4.94927 10.2384 4.88761 10.2342 4.79088 10.2254L2.32203 11.9812ZM3.31115 6.61538L3.31134 6.61541L3.31208 6.60837C3.31865 6.54584 3.33702 6.51804 3.35163 6.50482C3.36614 6.4917 3.39525 6.47638 3.4574 6.47638H5.5698C6.09718 6.47638 6.51084 6.58926 6.82152 6.80284C7.11491 7.005 7.27237 7.33407 7.27237 7.82242C7.27237 8.55331 7.06483 9.10783 6.66473 9.50392C6.26404 9.90057 5.7068 10.1058 4.9757 10.1058C4.95648 10.1058 4.90123 10.1022 4.80289 10.0933L4.80281 10.0933C4.70333 10.0843 4.61556 10.0795 4.54 10.0795C4.46125 10.0795 4.37927 10.0869 4.29394 10.101L4.29375 10.101C4.19505 10.1174 4.10621 10.1546 4.03261 10.2159L4.03256 10.2159C3.95393 10.2815 3.90699 10.3687 3.89379 10.4704L3.65657 11.9202L3.65636 11.9202L3.65557 11.9277C3.64909 11.9887 3.63057 12.0159 3.61489 12.0294C3.59833 12.0437 3.56516 12.0598 3.49699 12.0598H2.49362C2.48384 12.0598 2.47699 12.0585 2.4654 12.0439L2.46509 12.0435C2.45203 12.0272 2.45056 12.0166 2.45282 12.0032L2.45301 12.0021L3.31115 6.61538ZM4.10542 9.05582L4.08027 9.21408L4.24044 9.20921L4.67415 9.19604C5.02554 9.19585 5.31383 9.14692 5.52585 9.0357C5.76405 8.91086 5.8914 8.65891 5.93861 8.331C5.99279 7.99576 5.95052 7.7059 5.72061 7.55884L5.72046 7.55874C5.52912 7.4367 5.24192 7.38616 4.88341 7.38616H4.63249C4.56203 7.38616 4.49008 7.40407 4.43125 7.45385C4.37267 7.50342 4.3429 7.57123 4.33039 7.64032L4.33036 7.64031L4.32991 7.64313L4.10542 9.05582Z" fill="#003087" stroke="#003087" stroke-width="0.265269"/>
<path d="M27.1689 12.0076C27.1689 12.0518 27.1866 12.0934 27.2218 12.1331C27.2569 12.1726 27.3011 12.1924 27.3538 12.1924H28.2253C28.3923 12.1924 28.4847 12.109 28.5025 11.9416L29.3607 6.54169M27.1689 12.0076L27.2875 12.0671L27.3007 12.0407L27.3076 12.027M27.1689 12.0076L27.1822 11.9812L28.0404 6.48899M27.1689 12.0076H27.2348H27.3016C27.3016 12.0111 27.302 12.0172 27.3076 12.027M27.3076 12.027C27.3105 12.032 27.3147 12.0379 27.3209 12.0449L27.3211 12.0451C27.3309 12.0562 27.3389 12.0598 27.3538 12.0598H28.2253C28.2873 12.0598 28.3164 12.0445 28.3309 12.0314C28.3455 12.0181 28.364 11.9903 28.3707 11.9276L28.3714 11.9208L28.3716 11.9208L29.228 6.53122M27.3076 12.027L27.31 12.0221L27.3132 12.0017L28.1712 6.5112M29.228 6.53122V6.54169H29.3607M29.228 6.53122L29.2285 6.52862L29.228 6.52862V6.53122ZM29.3607 6.54169L29.2783 6.5286L29.3607 6.52857M29.3607 6.54169V6.52857M29.3607 6.52857C29.3606 6.40537 29.3033 6.34375 29.1889 6.34375H28.212C28.115 6.34375 28.0578 6.39218 28.0404 6.48899M29.3607 6.52857H29.2782L29.2297 6.52087L29.2285 6.52857H29.228C29.228 6.49707 29.2226 6.48427 29.2207 6.48077M28.0404 6.48899L28.1714 6.50946L28.1712 6.5112M28.0404 6.48899L28.1709 6.51249C28.171 6.51206 28.1711 6.51162 28.1712 6.5112M28.1712 6.5112C28.1736 6.49813 28.1767 6.49028 28.1789 6.48605C28.18 6.48392 28.1809 6.4827 28.1813 6.48211L28.1821 6.4813L28.1828 6.48084C28.1833 6.48056 28.1844 6.48001 28.1865 6.47937C28.1906 6.47807 28.1986 6.47638 28.212 6.47638H29.1889C29.2084 6.47638 29.2174 6.47923 29.2207 6.48077M29.2207 6.48077C29.221 6.48089 29.2212 6.481 29.2214 6.48111M29.2207 6.48077C29.2203 6.48003 29.22 6.4797 29.22 6.47971C29.22 6.47971 29.2202 6.47991 29.2205 6.48027C29.2208 6.48062 29.2211 6.48089 29.2214 6.48111M29.2214 6.48111C29.222 6.48146 29.2223 6.4817 29.2223 6.48173L29.2214 6.48111Z" fill="#009CDE" stroke="#003087" stroke-width="0.265269"/>
<path d="M14.4342 10.5142L14.5133 10.7838L14.6712 10.5514L16.0701 8.49254C16.1098 8.43612 16.1504 8.41779 16.1986 8.41779H17.2152C17.2163 8.41779 17.2168 8.41784 17.2185 8.41865C17.2206 8.41973 17.2264 8.42318 17.2349 8.43273C17.253 8.4533 17.2541 8.46502 17.2541 8.46998C17.2541 8.47589 17.2539 8.48045 17.2535 8.48382L17.2514 8.48685L13.8852 13.345C13.8851 13.345 13.885 13.3451 13.885 13.3452C13.845 13.4021 13.8044 13.4204 13.7561 13.4204H12.7395C12.7191 13.4204 12.709 13.4176 12.705 13.4159C12.7039 13.4131 12.7022 13.4075 12.7012 13.3975C12.702 13.3958 12.7029 13.3939 12.704 13.3917C12.7128 13.3737 12.7274 13.3473 12.7491 13.3113C12.7923 13.2397 12.8583 13.1387 12.948 13.0074C13.1272 12.7451 13.3969 12.368 13.7575 11.8754L13.7944 11.825L13.7791 11.7644C13.7685 11.7226 13.6621 11.4059 13.4658 10.8302C13.2677 10.2492 13.0828 9.70783 12.9112 9.20603L12.9112 9.20602C12.8255 8.95528 12.7613 8.7655 12.7186 8.63636C12.6972 8.57169 12.6815 8.52286 12.6711 8.48942C12.6674 8.47744 12.6646 8.46793 12.6625 8.46066C12.6645 8.45425 12.6692 8.44518 12.6801 8.43298L12.6801 8.43298L12.6806 8.43242C12.6889 8.42293 12.6945 8.41961 12.6965 8.41862C12.6979 8.4179 12.6985 8.41779 12.6999 8.41779H13.6902C13.7439 8.41779 13.7762 8.43024 13.7969 8.44526C13.8172 8.46008 13.8382 8.48609 13.8538 8.53509L14.4342 10.5142ZM12.7027 13.4148C12.7027 13.4148 12.7029 13.4149 12.7033 13.4152L12.7027 13.4148ZM12.7058 13.4176C12.706 13.418 12.7061 13.4182 12.7061 13.4182L12.7058 13.4176Z" fill="#003087" stroke="#003087" stroke-width="0.265269"/>
<path d="M23.6085 11.1027C23.7961 11.2695 24.0363 11.3474 24.3172 11.3474C24.6684 11.3474 24.9725 11.2241 25.222 10.9795C25.4721 10.7344 25.5984 10.4316 25.5985 10.0795V10.0795C25.5985 9.79346 25.5056 9.55447 25.3098 9.37977L25.3098 9.37968L23.7891 9.59756L23.6944 9.5047C23.6943 9.50472 23.6943 9.50474 23.6943 9.50476C23.449 9.75498 23.3263 10.0639 23.3263 10.4227C23.3263 10.7003 23.417 10.9327 23.6085 11.1027ZM23.6085 11.1027L23.6966 11.0036L23.6086 11.1028C23.6086 11.1028 23.6086 11.1028 23.6085 11.1027ZM25.5131 8.79193L25.7218 9.11241L25.7564 8.73157C25.769 8.59207 25.7923 8.50336 25.818 8.45347C25.8303 8.42964 25.84 8.42069 25.8437 8.41803C25.8456 8.41664 25.8458 8.41649 25.8486 8.41649H26.852C26.8613 8.41649 26.8683 8.41765 26.8805 8.43274C26.8935 8.44912 26.895 8.46 26.8928 8.47362L26.8927 8.47453L26.3513 11.9203C26.3513 11.9203 26.3513 11.9203 26.3513 11.9204C26.3414 11.9831 26.3212 12.0132 26.3032 12.0287C26.2855 12.044 26.2537 12.0591 26.192 12.0591H25.281C25.2656 12.0591 25.2583 12.0567 25.256 12.0558C25.255 12.0554 25.2548 12.0552 25.255 12.0554C25.2552 12.0555 25.2552 12.0555 25.2552 12.0555C25.2552 12.0555 25.2552 12.0555 25.2551 12.0554C25.2538 12.0538 25.2419 12.0366 25.2419 11.9805C25.2419 11.9626 25.2472 11.9228 25.2644 11.8545L25.2645 11.8541C25.2733 11.8186 25.2802 11.7899 25.2849 11.7686C25.2873 11.758 25.2894 11.7482 25.2909 11.7397L25.291 11.7391C25.292 11.7339 25.2948 11.7189 25.2948 11.7033V11.3428L25.0612 11.6174C24.9281 11.7737 24.7409 11.9033 24.4923 12.0027C24.2421 12.1027 23.9991 12.1516 23.7627 12.1516C23.2806 12.1516 22.9101 12.0075 22.6358 11.7291L22.6358 11.729C22.3614 11.4508 22.2186 11.0732 22.2186 10.5812C22.2186 9.97282 22.4276 9.44609 22.8495 8.99499L22.8495 8.99497C23.2695 8.5457 23.774 8.32404 24.3699 8.32404C24.954 8.32404 25.3183 8.49266 25.5131 8.79193Z" fill="#009CDE" stroke="#003087" stroke-width="0.265269"/>
<path d="M11.986 8.34988L11.8822 8.43247C11.8954 8.44899 11.897 8.45993 11.8947 8.47362L11.8946 8.47453L11.3533 11.9203C11.3434 11.9831 11.3231 12.0132 11.3052 12.0287C11.2875 12.044 11.2556 12.0591 11.1938 12.0591H10.2829C10.2676 12.0591 10.2603 12.0568 10.258 12.0558C10.2575 12.0556 10.2572 12.0555 10.2571 12.0554C10.2569 12.0553 10.2569 12.0553 10.257 12.0554C10.2571 12.0555 10.2572 12.0555 10.2572 12.0555C10.2572 12.0555 10.2572 12.0555 10.2571 12.0553C10.2558 12.0538 10.2439 12.0366 10.2439 11.9805C10.2439 11.9201 10.2574 11.8424 10.2899 11.7454L10.0655 11.6146C9.92312 11.7729 9.73005 11.9031 9.48112 12.0027C9.23036 12.1029 8.99166 12.1516 8.76462 12.1516C8.28263 12.1516 7.91215 12.0075 7.6379 11.7291L7.63785 11.729C7.36345 11.4507 7.22053 11.0732 7.22053 10.5812C7.22053 9.97282 7.42958 9.44609 7.85146 8.99499L7.85147 8.99498C8.27157 8.54569 8.77601 8.32404 9.37192 8.32404C9.94582 8.32404 10.3125 8.49204 10.5163 8.7938L10.7245 9.1022L10.7583 8.73159C10.771 8.59208 10.7943 8.50339 10.82 8.45351C10.8322 8.42969 10.842 8.42074 10.8457 8.41806C10.8476 8.41666 10.8479 8.41649 10.8507 8.41649H11.854C11.8634 8.41649 11.8704 8.41768 11.8825 8.43284L11.986 8.34988ZM11.986 8.34988C11.9508 8.30593 11.9068 8.28386 11.854 8.28386H10.8507C10.7567 8.28386 10.691 8.36808 10.6533 8.53654M11.986 8.34988C12.0211 8.39395 12.0343 8.44229 12.0256 8.49511L11.4843 11.9409C11.4579 12.1083 11.361 12.1918 11.1938 12.1918H10.2829C10.1684 12.1918 10.1113 12.1215 10.1113 11.9805C10.1113 11.9664 10.1118 11.9519 10.1129 11.9369L10.6533 8.53654M10.6533 8.53654C10.6827 8.57086 10.7103 8.60711 10.7361 8.64534L10.6262 8.71957L10.4941 8.70755C10.4983 8.6618 10.5037 8.61805 10.5105 8.57665L10.6533 8.53654ZM10.3118 9.37968L10.3119 9.37977C10.5076 9.55449 10.6004 9.7935 10.6004 10.0795C10.6004 10.4393 10.4748 10.7452 10.223 10.9869C9.97255 11.2278 9.66388 11.3474 9.30598 11.3474C9.02532 11.3474 8.78614 11.2695 8.60255 11.1015M10.3118 9.37968L8.69202 11.0036M10.3118 9.37968C10.1214 9.21005 9.88401 9.12825 9.60961 9.12825C9.24968 9.12825 8.94221 9.25377 8.69636 9.50469M10.3118 9.37968L8.79105 9.59756M8.60255 11.1015C8.60252 11.1015 8.60249 11.1014 8.60246 11.1014L8.69202 11.0036M8.60255 11.1015C8.60258 11.1015 8.6026 11.1016 8.60263 11.1016L8.69202 11.0036M8.60255 11.1015C8.41587 10.9311 8.32832 10.6991 8.32832 10.4227C8.32832 10.0639 8.45093 9.75494 8.69636 9.50469M8.69202 11.0036C8.53791 10.863 8.46095 10.6693 8.46095 10.4227C8.46095 10.0972 8.57092 9.82201 8.79105 9.59756M8.69636 9.50469C8.69634 9.50471 8.69633 9.50472 8.69631 9.50474L8.79105 9.59756M8.69636 9.50469L8.79105 9.59756" fill="#003087" stroke="#003087" stroke-width="0.265269"/>
<path d="M20.6162 8.97498L20.6162 8.97502C20.3907 9.12868 20.0694 9.1958 19.6722 9.19604L19.2518 9.20921L19.0915 9.21423L19.1166 9.05582L19.3411 7.64313L19.3415 7.64042L19.3416 7.64042C19.354 7.5713 19.3838 7.50345 19.4424 7.45385C19.5012 7.40405 19.5732 7.38616 19.6437 7.38616H19.8813C20.0778 7.38616 20.2394 7.39502 20.3636 7.41404L20.3639 7.41408C20.5076 7.43642 20.6402 7.50476 20.7608 7.61033L20.6162 8.97498ZM20.6162 8.97498C20.8632 8.80644 20.9646 8.50032 20.9646 8.11289C20.9646 7.90916 20.9024 7.73417 20.7608 7.61034L20.6162 8.97498ZM18.3092 6.61538L18.3094 6.61541L18.3101 6.60831C18.3165 6.5475 18.335 6.52039 18.3506 6.50686C18.3672 6.49253 18.4005 6.47638 18.4687 6.47638H20.5679C21.0953 6.47638 21.5089 6.58926 21.8196 6.80284C22.113 7.00499 22.2704 7.33406 22.2703 7.82237V7.82238C22.2703 8.5533 22.0629 9.1078 21.6628 9.50387L21.6627 9.50388C21.262 9.90053 20.7049 10.1058 19.9737 10.1058C19.9547 10.1058 19.8993 10.1022 19.8009 10.0932L19.8008 10.0932C19.7014 10.0843 19.6136 10.0795 19.5381 10.0795C19.4593 10.0795 19.3773 10.0868 19.292 10.1009L19.2919 10.101C19.193 10.1174 19.1043 10.1545 19.0307 10.2158L19.0306 10.2159C18.9517 10.2817 18.9049 10.3691 18.8918 10.4709L18.656 11.9901C18.6443 12.0242 18.6312 12.0396 18.6226 12.0466C18.6148 12.0529 18.6018 12.0598 18.5742 12.0598H17.4917C17.4818 12.0598 17.4749 12.0583 17.4636 12.044L17.4631 12.0434C17.4501 12.0272 17.4486 12.0166 17.4509 12.0032L17.4511 12.002L18.3092 6.61538ZM17.3597 12.1264L17.3597 12.1264L17.3597 12.1264Z" fill="#009CDE" stroke="#003087" stroke-width="0.265269"/>
<path d="M70.7794 22C69.5461 22 68.5459 22.9781 68.5459 24.1843V39.7109C68.5459 40.9173 69.5458 41.8952 70.7794 41.8952H97.9926C99.2259 41.8952 100.226 40.9171 100.226 39.7109V32.6646V24.1843C100.226 22.9778 99.2262 22 97.9926 22H70.7794Z" fill="#4D4D4D"/>
<path d="M81.8326 28.4287C82.1915 28.4287 82.4926 28.5019 82.8589 28.6784V29.6114C82.5119 29.2889 82.2109 29.154 81.8128 29.154C81.0304 29.154 80.4151 29.7697 80.4151 30.5503C80.4151 31.3734 81.0114 31.9525 81.8516 31.9525C82.2298 31.9525 82.5253 31.8245 82.8589 31.5073V32.4407C82.4795 32.6105 82.172 32.6775 81.8128 32.6775C80.5424 32.6775 79.5553 31.751 79.5553 30.556C79.5553 29.374 80.5687 28.4287 81.8326 28.4287ZM77.8883 28.4544C78.3573 28.4544 78.7864 28.607 79.1451 28.9052L78.7086 29.4485C78.4912 29.217 78.2857 29.1193 78.0358 29.1193C77.6762 29.1193 77.4143 29.3139 77.4143 29.5699C77.4143 29.7895 77.5614 29.9057 78.062 30.0818C79.0109 30.4116 79.2922 30.704 79.2922 31.3499C79.2922 32.1369 78.6839 32.6847 77.817 32.6847C77.1822 32.6847 76.7207 32.4471 76.3363 31.9109L76.8752 31.4176C77.0673 31.7706 77.3878 31.9598 77.7858 31.9598C78.1579 31.9598 78.4335 31.7157 78.4335 31.3863C78.4335 31.2156 78.35 31.0692 78.1833 30.9657C78.0994 30.9167 77.9332 30.8436 77.6066 30.7342C76.8231 30.4661 76.5543 30.1795 76.5543 29.6194C76.5543 28.9541 77.1316 28.4544 77.8883 28.4544ZM87.4217 28.5253H88.3331L89.4737 31.2559L90.629 28.5253H91.5334L89.6857 32.695H89.2367L87.4217 28.5253ZM71.2832 28.5315H72.5078C73.8608 28.5315 74.8039 29.3673 74.8039 30.5671C74.8039 31.1653 74.5154 31.7438 74.0275 32.1276C73.6169 32.4516 73.1491 32.5969 72.5014 32.5969H71.2832V28.5315ZM75.1878 28.5315H76.0221V32.5969H75.1878V28.5315ZM91.9106 28.5315H94.2766V29.2204H92.7443V30.1228H94.2201V30.8113H92.7443V31.9087H94.2766V32.5969H91.9106V28.5315ZM94.8292 28.5315H96.0661C97.0283 28.5315 97.5797 28.9707 97.5797 29.7318C97.5797 30.3543 97.2339 30.7628 96.6055 30.8843L97.9518 32.5969H96.9259L95.7712 30.9638H95.6624V32.5969H94.8292V28.5315ZM95.6624 29.1719V30.4031H95.9062C96.4389 30.4031 96.7213 30.1832 96.7213 29.7745C96.7213 29.3789 96.4389 29.1719 95.9194 29.1719H95.6624ZM72.1169 29.2204V31.9087H72.3407C72.8798 31.9087 73.2203 31.8105 73.4824 31.5856C73.7709 31.3414 73.9445 30.9514 73.9445 30.5612C73.9445 30.1717 73.7709 29.7934 73.4824 29.5492C73.2068 29.3122 72.8798 29.2204 72.3407 29.2204H72.1169Z" fill="white"/>
<path d="M85.4058 28.4014C86.6624 28.4014 87.6811 29.3377 87.6811 30.4945V30.4958C87.6811 31.6525 86.6624 32.5902 85.4058 32.5902C84.1491 32.5902 83.1304 31.6525 83.1304 30.4958V30.4945C83.1304 29.3377 84.1491 28.4014 85.4058 28.4014ZM100.224 33.4505C99.1664 34.1785 91.2452 39.3809 77.5303 41.894H97.9909C99.2242 41.894 100.224 40.9159 100.224 39.7097V33.4505Z" fill="#F47216"/>
<path d="M64.2562 22.1045H35.9552C35.0221 22.1045 34.2656 22.861 34.2656 23.7941V40.3101C34.2656 41.2432 35.0221 41.9997 35.9552 41.9997H64.2562C65.1894 41.9997 65.9458 41.2432 65.9458 40.3101V23.7941C65.9458 22.861 65.1894 22.1045 64.2562 22.1045Z" fill="black"/>
<path d="M43.6057 39.9146V38.865C43.6057 38.4624 43.3607 38.2001 42.9586 38.2001C42.7474 38.2001 42.5214 38.2702 42.3638 38.4958C42.2413 38.3032 42.0682 38.2001 41.8042 38.2001C41.6048 38.1915 41.4144 38.2835 41.2973 38.4451V38.2339H40.9648V39.9134H41.2973V38.9524C41.2973 38.6567 41.4721 38.5152 41.7171 38.5152C41.9621 38.5152 42.102 38.6728 42.102 38.9524V39.9146H42.4344V38.9524C42.4344 38.6567 42.6093 38.5152 42.8543 38.5152C43.0992 38.5152 43.2391 38.6728 43.2391 38.9524V39.9146H43.6057ZM49.064 38.2525H48.4515V37.7456H48.1199V38.2525H47.7702V38.5482H48.1199V39.3372C48.1199 39.722 48.2597 39.9497 48.6796 39.9497C48.8387 39.9464 48.9945 39.9043 49.1337 39.8272L49.0285 39.5315C48.9341 39.5905 48.8247 39.6209 48.7134 39.619C48.5385 39.619 48.4511 39.5138 48.4511 39.3389V38.5347H49.0636V38.2546L49.064 38.2525ZM52.1779 38.2001C51.9938 38.196 51.821 38.2891 51.723 38.4451V38.2339H51.3906V39.9134H51.723V38.9702C51.723 38.6901 51.8628 38.5152 52.0905 38.5152C52.1673 38.5183 52.2436 38.5301 52.3178 38.5503L52.4229 38.2352C52.3427 38.215 52.2606 38.2032 52.1779 38.2001ZM47.472 38.375C47.2971 38.2525 47.0521 38.2001 46.7898 38.2001C46.3699 38.2001 46.1076 38.3927 46.1076 38.7252C46.1076 39.0052 46.3002 39.1623 46.6673 39.2151L46.8422 39.2325C47.0348 39.2675 47.1573 39.3376 47.1573 39.4251C47.1573 39.5476 47.0175 39.6363 46.7547 39.6363C46.5541 39.6404 46.3576 39.579 46.195 39.4614L46.0202 39.7237C46.2652 39.8986 46.5625 39.9349 46.7382 39.9349C47.2282 39.9349 47.4905 39.7077 47.4905 39.3926C47.4905 39.0969 47.2793 38.9554 46.9131 38.9026L46.7382 38.8853C46.5807 38.8679 46.4426 38.8151 46.4426 38.7104C46.4426 38.5879 46.5824 38.4992 46.775 38.4992C46.9862 38.4992 47.1949 38.5866 47.3 38.639L47.472 38.375ZM52.5454 39.0749C52.5454 39.5818 52.8779 39.9497 53.4202 39.9497C53.6652 39.9497 53.8401 39.8973 54.015 39.7571L53.8401 39.4948C53.7163 39.5951 53.5622 39.6506 53.4029 39.6523C53.1072 39.6523 52.8779 39.4251 52.8779 39.0927C52.8779 38.7602 53.1043 38.5347 53.4029 38.5347C53.5622 38.5364 53.7163 38.5919 53.8401 38.6922L54.015 38.4299C53.8401 38.2901 53.6652 38.2373 53.4202 38.2373C52.8952 38.2022 52.5454 38.5697 52.5454 39.077V39.0749ZM50.2011 38.2001C49.7111 38.2001 49.3787 38.5499 49.3787 39.0749C49.3787 39.6 49.7284 39.9497 50.2357 39.9497C50.4825 39.9549 50.7236 39.8746 50.9179 39.7225L50.743 39.4775C50.6025 39.5864 50.4308 39.6476 50.2531 39.6523C50.0258 39.6523 49.7808 39.5125 49.7462 39.2151H50.9885V39.0753C50.9885 38.5503 50.6733 38.2005 50.2011 38.2005V38.2001ZM50.1838 38.5152C50.4288 38.5152 50.6037 38.6728 50.621 38.9351H49.7115C49.7639 38.6901 49.9227 38.5152 50.1838 38.5152ZM45.6527 39.0749V38.2352H45.3202V38.4464C45.1977 38.2888 45.0246 38.2014 44.7779 38.2014C44.3056 38.2014 43.9555 38.5689 43.9555 39.0762C43.9555 39.5835 44.3052 39.951 44.7779 39.951C45.0229 39.951 45.1977 39.8635 45.3202 39.706V39.9172H45.6527V39.0749ZM44.3056 39.0749C44.3056 38.7598 44.4982 38.5152 44.8307 38.5152C45.1458 38.5152 45.3376 38.7602 45.3376 39.0749C45.3376 39.4073 45.1264 39.6346 44.8307 39.6346C44.4982 39.6519 44.3056 39.3896 44.3056 39.0749ZM57.2345 38.2001C57.0503 38.196 56.8776 38.2891 56.7796 38.4451V38.2339H56.4472V39.9134H56.7792V38.9702C56.7792 38.6901 56.919 38.5152 57.1467 38.5152C57.2235 38.5183 57.2997 38.5301 57.3739 38.5503L57.4791 38.2352C57.3989 38.215 57.3168 38.2032 57.2341 38.2001H57.2345ZM55.9399 39.0749V38.2352H55.6074V38.4464C55.4849 38.2888 55.3118 38.2014 55.0651 38.2014C54.5928 38.2014 54.2427 38.5689 54.2427 39.0762C54.2427 39.5835 54.5924 39.951 55.0651 39.951C55.3101 39.951 55.4849 39.8635 55.6074 39.706V39.9172H55.9399V39.0749ZM54.5928 39.0749C54.5928 38.7598 54.7854 38.5152 55.1179 38.5152C55.433 38.5152 55.6248 38.7602 55.6248 39.0749C55.6248 39.4073 55.4136 39.6346 55.1179 39.6346C54.7854 39.6519 54.5928 39.3896 54.5928 39.0749ZM59.3166 39.0749V37.5703H58.9841V38.4451C58.8616 38.2876 58.6884 38.2001 58.4418 38.2001C57.9695 38.2001 57.6193 38.5676 57.6193 39.0749C57.6193 39.5822 57.9691 39.9497 58.4418 39.9497C58.6868 39.9497 58.8616 39.8623 58.9841 39.7047V39.9159H59.3166V39.0749ZM57.9695 39.0749C57.9695 38.7598 58.1621 38.5152 58.4946 38.5152C58.8097 38.5152 59.0014 38.7602 59.0014 39.0749C59.0014 39.4073 58.7902 39.6346 58.4946 39.6346C58.1617 39.6523 57.9691 39.39 57.9691 39.0749H57.9695Z" fill="white"/>
<path d="M53.1587 25.499H47.0879V35.401H53.1587V25.499Z" fill="#FF5F00"/>
<path d="M47.7002 30.4495C47.7007 28.5196 48.5835 26.6959 50.0969 25.4985C47.5149 23.4684 43.8062 23.7635 41.5777 26.1764C39.3491 28.5893 39.3491 32.3097 41.5777 34.7226C43.8062 37.1355 47.5149 37.4306 50.0969 35.4005C48.5835 34.2031 47.7007 32.3793 47.7002 30.4495Z" fill="#EB001B"/>
<path d="M60.2971 30.4496C60.2988 32.8593 58.9242 35.0583 56.7572 36.1122C54.5902 37.1661 52.0116 36.8898 50.1172 35.4006C51.631 34.2035 52.514 32.3796 52.514 30.4496C52.514 28.5197 51.631 26.6958 50.1172 25.4986C52.0116 24.0095 54.5902 23.7331 56.7572 24.787C58.9242 25.841 60.2988 28.04 60.2971 30.4496Z" fill="#F79E1B"/>
</svg>
