<svg width="24" height="25" viewBox="0 0 24 25" fill="none" xmlns="http://www.w3.org/2000/svg">
<path d="M24 0.917969H0V24.918H24V0.917969ZM8 19.5846H4.636V10.2513H8V19.5846ZM6.25867 8.54064C5.23067 8.54064 4.544 7.8553 4.544 6.94064C4.544 6.02597 5.22933 5.34064 6.372 5.34064C7.4 5.34064 8.08667 6.02597 8.08667 6.94064C8.08667 7.8553 7.40133 8.54064 6.25867 8.54064ZM20 19.5846H16.744V14.4833C16.744 13.0726 15.876 12.7473 15.5507 12.7473C15.2253 12.7473 14.14 12.9646 14.14 14.4833C14.14 14.7006 14.14 19.5846 14.14 19.5846H10.776V10.2513H14.14V11.554C14.5733 10.794 15.4413 10.2513 17.0693 10.2513C18.6973 10.2513 20 11.554 20 14.4833V19.5846Z" fill="#6165AF"/>
</svg>
