<svg width="24" height="25" viewBox="0 0 24 25" fill="none" xmlns="http://www.w3.org/2000/svg">
<path d="M0 0.917969V24.918H24V0.917969H0ZM20 3.58464C20.736 3.58464 21.3333 4.18197 21.3333 4.91797C21.3333 5.65397 20.736 6.2513 20 6.2513C19.264 6.2513 18.6667 5.65397 18.6667 4.91797C18.6667 4.18197 19.264 3.58464 20 3.58464ZM12 6.2513C15.6813 6.2513 18.6667 9.23664 18.6667 12.918C18.6667 16.5993 15.6813 19.5846 12 19.5846C8.31867 19.5846 5.33333 16.5993 5.33333 12.918C5.33333 9.23664 8.31867 6.2513 12 6.2513ZM12 8.91797C10.9391 8.91797 9.92172 9.3394 9.17157 10.0895C8.42143 10.8397 8 11.8571 8 12.918C8 13.9788 8.42143 14.9963 9.17157 15.7464C9.92172 16.4965 10.9391 16.918 12 16.918C13.0609 16.918 14.0783 16.4965 14.8284 15.7464C15.5786 14.9963 16 13.9788 16 12.918C16 11.8571 15.5786 10.8397 14.8284 10.0895C14.0783 9.3394 13.0609 8.91797 12 8.91797Z" fill="#6165AF"/>
</svg>
